<svg xmlns="http://www.w3.org/2000/svg" version="1.1" xmlns:xlink="http://www.w3.org/1999/xlink" xmlns:svgjs="http://svgjs.com/svgjs" width="1920" height="1080" preserveAspectRatio="none" viewBox="0 0 1920 1080"><g mask="url(&quot;#SvgjsMask1014&quot;)" fill="none"><rect width="1920" height="1080" x="0" y="0" fill="rgba(46, 47, 52, 1)"></rect><path d="M1686.574,805.637C1798.642,805.442,1899.092,738.114,1952.809,639.759C2004.373,545.347,1995.302,432.021,1941.505,338.864C1887.718,245.724,1794.075,182.126,1686.574,178.732C1572.88,175.143,1459.209,223.431,1402.153,321.838C1344.938,420.519,1360.92,542.354,1418.73,640.688C1475.685,737.568,1574.192,805.832,1686.574,805.637" fill="rgba(142, 93, 28, 0.4)" class="triangle-float2"></path><path d="M363.041,423.997C397.534,425.579,435.066,418.009,452.917,388.453C471.22,358.148,464.016,319.036,444.122,289.751C426.502,263.814,394.396,256.358,363.041,256.156C331.22,255.951,296.793,261.585,280.126,288.693C262.848,316.794,269.159,352.688,286.395,380.815C302.817,407.613,331.644,422.557,363.041,423.997" fill="rgba(142, 93, 28, 0.4)" class="triangle-float2"></path><path d="M855.29 911.16 a251.66 251.66 0 1 0 503.32 0 a251.66 251.66 0 1 0 -503.32 0z" fill="rgba(142, 93, 28, 0.4)" class="triangle-float2"></path><path d="M1688.798,1300.218C1798.53,1305.793,1907.761,1250.279,1958.804,1152.981C2007.039,1061.035,1973.383,952.522,1916.91,865.393C1865.989,786.829,1782.376,739.315,1688.798,736.405C1589.354,733.313,1484.525,764.272,1434.717,850.399C1384.862,936.608,1413.493,1041.052,1462.472,1127.762C1512.469,1216.275,1587.272,1295.06,1688.798,1300.218" fill="rgba(142, 93, 28, 0.4)" class="triangle-float1"></path><path d="M1277.224,1031.715C1307.926,1031.14,1332.627,1011.21,1349.89,985.815C1370.373,955.683,1391.841,919.685,1375.524,887.108C1358.134,852.39,1315.985,838.434,1277.224,840.741C1242.219,842.825,1213.582,866.66,1197.299,897.717C1182.213,926.492,1183.045,960.723,1199.688,988.626C1215.922,1015.843,1245.539,1032.308,1277.224,1031.715" fill="rgba(142, 93, 28, 0.4)" class="triangle-float1"></path><path d="M-24.87 642.77 a277.91 277.91 0 1 0 555.82 0 a277.91 277.91 0 1 0 -555.82 0z" fill="rgba(142, 93, 28, 0.4)" class="triangle-float1"></path></g><defs><mask id="SvgjsMask1014"><rect width="1920" height="1080" fill="#ffffff"></rect></mask><style>
            @keyframes float1 {
                0%{transform: translate(0, 0)}
                50%{transform: translate(-10px, 0)}
                100%{transform: translate(0, 0)}
            }

            .triangle-float1 {
                animation: float1 5s infinite;
            }

            @keyframes float2 {
                0%{transform: translate(0, 0)}
                50%{transform: translate(-5px, -5px)}
                100%{transform: translate(0, 0)}
            }

            .triangle-float2 {
                animation: float2 4s infinite;
            }

            @keyframes float3 {
                0%{transform: translate(0, 0)}
                50%{transform: translate(0, -10px)}
                100%{transform: translate(0, 0)}
            }

            .triangle-float3 {
                animation: float3 6s infinite;
            }
        </style></defs></svg>