<svg xmlns="http://www.w3.org/2000/svg" version="1.1" xmlns:xlink="http://www.w3.org/1999/xlink" xmlns:svgjs="http://svgjs.com/svgjs" width="1920" height="1080" preserveAspectRatio="none" viewBox="0 0 1920 1080"><g mask="url(&quot;#SvgjsMask1077&quot;)" fill="none"><rect width="1920" height="1080" x="0" y="0" fill="rgba(46, 47, 52, 1)"></rect><path d="M161.248,683.393C268.794,683.012,380.89,650.828,434.812,557.775C488.852,464.519,469.746,345.733,408.179,257.266C354.36,179.933,255.453,166.188,161.248,164.685C63.262,163.121,-43.467,168.918,-99.721,249.162C-163.496,340.134,-172.921,464.497,-115.691,559.723C-59.874,652.599,52.891,683.777,161.248,683.393" fill="rgba(142, 93, 28, 0.4)" class="triangle-float3"></path><path d="M1426.762,463.503C1469.958,463.392,1507.808,436.19,1528.596,398.325C1548.6,361.888,1546.332,318.481,1526.41,281.999C1505.543,243.786,1470.293,212.68,1426.762,211.844C1381.968,210.984,1341.827,238.773,1320.254,278.039C1299.46,315.886,1302.512,361.404,1324.017,398.851C1345.615,436.46,1383.392,463.614,1426.762,463.503" fill="rgba(142, 93, 28, 0.4)" class="triangle-float2"></path><path d="M1004.319,817.196C1067.348,819.914,1142.898,824.995,1174.606,770.454C1206.387,715.787,1164.869,652.412,1131.256,598.852C1100.598,550.001,1061.913,502.157,1004.319,499.115C942.034,495.825,882.661,529.88,851.815,584.091C821.285,637.747,823.907,705.126,857.705,756.786C888.72,804.194,947.72,814.755,1004.319,817.196" fill="rgba(142, 93, 28, 0.4)" class="triangle-float1"></path><path d="M1582.96 1058.66 a324.34 324.34 0 1 0 648.68 0 a324.34 324.34 0 1 0 -648.68 0z" fill="rgba(142, 93, 28, 0.4)" class="triangle-float3"></path><path d="M913.653,576.124C946.446,575.729,981.524,568.275,998.007,539.923C1014.554,511.461,1005.503,476.178,987.953,448.324C971.672,422.483,944.169,407.303,913.653,406.04C880.493,404.667,845.899,413.83,827.873,441.696C808.405,471.791,806.422,511.783,825.703,541.998C843.833,570.41,879.951,576.53,913.653,576.124" fill="rgba(142, 93, 28, 0.4)" class="triangle-float2"></path><path d="M1258.388,863.297C1341.788,858.86,1401.553,789.905,1439.522,715.517C1473.634,648.686,1476.247,571.748,1441.018,505.498C1403.356,434.673,1338.488,379.193,1258.388,374.886C1170.761,370.174,1083.519,408.666,1038.25,483.842C991.638,561.248,995.144,658.588,1040.486,736.745C1085.662,814.615,1168.489,868.08,1258.388,863.297" fill="rgba(142, 93, 28, 0.4)" class="triangle-float1"></path><path d="M-242.79 544.76 a319.18 319.18 0 1 0 638.36 0 a319.18 319.18 0 1 0 -638.36 0z" fill="rgba(142, 93, 28, 0.4)" class="triangle-float2"></path></g><defs><mask id="SvgjsMask1077"><rect width="1920" height="1080" fill="#ffffff"></rect></mask><style>
            @keyframes float1 {
                0%{transform: translate(0, 0)}
                50%{transform: translate(-10px, 0)}
                100%{transform: translate(0, 0)}
            }

            .triangle-float1 {
                animation: float1 5s infinite;
            }

            @keyframes float2 {
                0%{transform: translate(0, 0)}
                50%{transform: translate(-5px, -5px)}
                100%{transform: translate(0, 0)}
            }

            .triangle-float2 {
                animation: float2 4s infinite;
            }

            @keyframes float3 {
                0%{transform: translate(0, 0)}
                50%{transform: translate(0, -10px)}
                100%{transform: translate(0, 0)}
            }

            .triangle-float3 {
                animation: float3 6s infinite;
            }
        </style></defs></svg>